<?xml version="1.0" encoding="utf-8"?>
<!-- Generator: Adobe Illustrator 22.1.0, SVG Export Plug-In . SVG Version: 6.00 Build 0)  -->
<svg version="1.1" id="Layer_1" xmlns="http://www.w3.org/2000/svg" xmlns:xlink="http://www.w3.org/1999/xlink" x="0px" y="0px"
	 viewBox="0 0 545 131.6" style="enable-background:new 0 0 545 131.6;" xml:space="preserve">
<style type="text/css">
	.st0{fill:#61B984;}
	.st1{fill:#3B302D;}
	.st2{fill:#3B3735;}
</style>
<path class="st0" d="M45.2,40.5c-27.3,1.7-34.6,24.8-34.6,24.8s-0.2,1.1-0.3,2.7c0,1.2-0.1,2.9,0.8,3.3c2.8,0.5,9.1,1.2,19.6-0.4
	c0,0.1,0.8-0.6,0.8-0.5c-7.2,14.2-20.8,16.3-20.8,16.3c-1.2,17.3-5.1,32-10.2,40c36.9,0,53.7-24.3,58.2-37.7l12.8,12.7
	c6.1-6.5,9.9-15.2,9.9-24.9C81.5,56.8,65.3,40.5,45.2,40.5"/>
<path class="st1" d="M93.8,29.3C67.2,2.8,26.9,3.4,0.7,27.6c2.7,5.4,6.7,13,8.9,22.8c18.2-25.3,51.3-23.9,69-6.2
	c17.5,17.5,16.9,46.5-0.2,64.2l10.1,10c-3,0-11.7,0-11.9,0c-0.5,0-0.6,0.3-0.4,0.7c0.1,0.2,0.2,0.5,0.3,0.7c2,4.3,3.5,7.5,5.4,11.8
	c4.7-3,8.4-6,11-8.6C119.5,96.8,119.9,55.3,93.8,29.3"/>
<g>
	<path class="st0" d="M124.7,9.9h51.9v14h-34.4v12.1h31.5v13.7h-31.5v14.6h35.5v14h-53V9.9z"/>
	<path class="st0" d="M186.9,9.9h18.5l9.6,35.1c0.9,3.2,2.2,7.6,3.5,13.5c0.8-3.3,1.9-7.4,3.3-12.4l10.1-36.2h18.4l-23.7,68.3h-16.3
		L186.9,9.9z"/>
	<path class="st0" d="M263.1,9.9h17.5v68.3h-17.5V9.9z"/>
	<path class="st0" d="M301,9.9h18.9l12.9,22.4c4.2,7.3,8,14.5,11.3,21.5c-0.6-11.9-0.8-20.7-0.8-26.4V9.9h16.9v68.3h-18.9L328,55.1
		c-3-5.2-6.7-12-11-20.1c0.7,9.5,1,17.1,1,22.6v20.6H301V9.9z"/>
	<path class="st0" d="M411,80.1c-19.9,0-33.4-14.2-33.4-35.5c0-22.1,13.5-36.4,34.4-36.4c16.5,0,27.7,9.3,29.3,24.4h-16.4
		c-1.6-6.6-6.1-9.9-13.4-9.9c-9.5,0-15.9,7.9-15.9,21.7c0,13.7,5.9,21.1,15.4,21.1c7.9,0,12.7-3.9,13.9-11.2h16.2
		C438.7,70.7,427.7,80.1,411,80.1z"/>
	<path class="st0" d="M457.9,9.9h51.9v14h-34.4v12.1h31.5v13.7h-31.5v14.6h35.5v14h-53V9.9z"/>
</g>
<g>
	<path class="st1" d="M124.9,131.2V98.2H136c4.6,0,8.3,1.6,10.9,4.8s3.9,7,3.9,11.6c0,4.6-1.3,8.6-3.8,11.8
		c-2.5,3.2-5.7,4.8-9.6,4.8H124.9z M129,127.7h6.7c3.5,0,6.2-1.2,8.1-3.7s2.8-5.7,2.8-9.7c0-3.2-0.9-6.2-2.6-8.8
		c-1.7-2.6-4.5-3.9-8.2-3.9H129V127.7z"/>
	<path class="st1" d="M185.3,127.6v3.6H164V98.2h20.8v3.6h-16.7v10.5h13.3v3.4h-13.3v11.9H185.3z"/>
	<path class="st1" d="M220.5,98.2l-11.1,32.9h-4l-11.1-32.9h4.3l9.2,27.2l9.1-27.2H220.5z"/>
	<path class="st1" d="M253.3,127.6v3.6H232V98.2h20.8v3.6h-16.7v10.5h13.3v3.4h-13.3v11.9H253.3z"/>
	<path class="st1" d="M285.6,127.6v3.6h-19.4V98.2h4.2v29.3H285.6z"/>
	<path class="st1" d="M307.8,131.8c-4.2,0-7.5-1.6-9.9-4.9c-2.4-3.3-3.5-7.3-3.5-12.1c0-5,1.2-9.1,3.7-12.4c2.5-3.3,5.8-4.9,9.8-4.9
		c4.1,0,7.3,1.6,9.8,4.8c2.5,3.2,3.7,7.2,3.7,12.1c0,4.7-1.2,8.7-3.6,12.2C315.4,130.1,312.1,131.8,307.8,131.8z M307.9,128.5
		c2.9,0,5.1-1.3,6.8-3.9c1.6-2.6,2.4-6,2.4-10.1c0-4.3-0.8-7.6-2.5-9.9c-1.7-2.4-3.9-3.5-6.7-3.5c-2.8,0-5.1,1.3-6.7,3.8
		c-1.7,2.6-2.5,5.9-2.5,10c0,4,0.8,7.3,2.5,9.9C302.9,127.2,305.1,128.5,307.9,128.5z"/>
	<path class="st1" d="M338.9,131.2h-4.1V98.2h11.7c3.7,0,6.3,1,8.1,3s2.6,4.3,2.6,6.8c0,2.8-0.9,5.2-2.8,7c-1.9,1.9-4.4,2.8-7.4,2.8
		h-8V131.2z M338.9,114.4h7.6c1.9,0,3.5-0.6,4.7-1.7s1.8-2.7,1.8-4.6c0-1.6-0.5-3.1-1.6-4.4c-1.1-1.3-2.6-1.9-4.6-1.9h-7.9V114.4z"
		/>
	<path class="st1" d="M401.4,131.2h-4v-28.8l-10.7,28.8h-2.8l-10.8-28.8v28.8h-3.5V98.2h6.1l10,26.3l9.7-26.3h6V131.2z"/>
	<path class="st1" d="M438.1,127.6v3.6h-21.3V98.2h20.8v3.6h-16.7v10.5h13.3v3.4h-13.3v11.9H438.1z"/>
	<path class="st1" d="M475.3,131.2h-4l-17-28.7l0,2.2c0,0.8,0.1,1.5,0.1,2.1v24.5H451V98.2h5.2l15.9,26.8l0-2.3c0-0.9,0-1.7,0-2.4
		V98.2h3.3V131.2z"/>
	<path class="st1" d="M500.6,131.2h-4.1v-29.3H487v-3.6h23v3.6h-9.5V131.2z"/>
</g>
<g>
	<path class="st2" d="M544.3,16.3c0,7.3-5.7,13-13.2,13c-7.4,0-13.3-5.7-13.3-13c0-7.2,5.9-12.9,13.3-12.9
		C538.6,3.4,544.3,9.1,544.3,16.3z M521.1,16.3c0,5.7,4.2,10.3,10.1,10.3c5.7,0,9.8-4.6,9.8-10.2c0-5.7-4.2-10.4-9.9-10.4
		C525.4,6,521.1,10.6,521.1,16.3z M529.1,23h-3V10.2c1.2-0.2,2.8-0.4,5-0.4c2.4,0,3.5,0.4,4.5,0.9c0.7,0.6,1.3,1.6,1.3,2.8
		c0,1.4-1.1,2.5-2.7,3v0.2c1.3,0.5,2,1.4,2.4,3.1c0.4,2,0.6,2.8,0.9,3.2h-3.2c-0.4-0.5-0.6-1.6-1-3.1c-0.2-1.4-1-2-2.7-2h-1.4V23z
		 M529.1,15.7h1.4c1.7,0,3-0.6,3-1.9c0-1.2-0.9-2-2.8-2c-0.8,0-1.3,0.1-1.7,0.2V15.7z"/>
</g>
<g>
</g>
<g>
</g>
<g>
</g>
<g>
</g>
<g>
</g>
<g>
</g>
</svg>
